<?xml version="1.0" standalone="no"?><!DOCTYPE svg PUBLIC "-//W3C//DTD SVG 1.1//EN" "http://www.w3.org/Graphics/SVG/1.1/DTD/svg11.dtd"><svg t="1631777348396" class="icon" viewBox="0 0 1024 1024" version="1.1" xmlns="http://www.w3.org/2000/svg" p-id="2538" xmlns:xlink="http://www.w3.org/1999/xlink" width="200" height="200"><defs><style type="text/css"></style></defs><path d="M778.77 452.18a25.44 25.44 0 0 1-24.22-17.7 253.18 253.18 0 0 0-20.8-47.65q-6-10.53-13-20.6A25.43 25.43 0 1 1 762.39 337q8.46 12 15.64 24.77A305.19 305.19 0 0 1 803 419a25.44 25.44 0 0 1-24.23 33.17z" fill="#1296db" p-id="2539"></path><path d="M512.07 817.11a305.08 305.08 0 1 1 193.08-541.54A25.42 25.42 0 1 1 673 315c-108.7-88.57-269.21-72.26-357.78 36.45S243 620.62 351.7 709.21c52.64 42.9 118.81 62.91 186.43 55.87A254 254 0 0 0 766 530.21a25.43 25.43 0 0 1 50.74 3.58 306.09 306.09 0 0 1-9 54.9 302.41 302.41 0 0 1-58.93 116.2c-60.16 73.89-148.11 112.22-236.74 112.22z" fill="#1296db" p-id="2540"></path><path d="M437.12 370.4V650a0.64 0.64 0 0 0 1 0.55l242.14-139.8a0.64 0.64 0 0 0 0-1.11L438.08 369.85a0.64 0.64 0 0 0-0.96 0.55z" fill="#1296db" p-id="2541"></path></svg>